<svg xmlns="http://www.w3.org/2000/svg" width="32.348" height="29.113" viewBox="0 0 32.348 29.113">
  <path id="bxs-city" d="M33.73,9.47h-6.47V4.617A1.617,1.617,0,0,0,25.643,3H12.7a1.617,1.617,0,0,0-1.617,1.617V15.939H4.617A1.617,1.617,0,0,0,3,17.556V30.5a1.617,1.617,0,0,0,1.617,1.617H33.73A1.617,1.617,0,0,0,35.348,30.5V11.087A1.617,1.617,0,0,0,33.73,9.47ZM9.47,28.878H6.235V25.643H9.47Zm0-6.47H6.235V19.174H9.47Zm8.087,6.47H14.322V25.643h3.235Zm0-6.47H14.322V19.174h3.235Zm0-6.47H14.322V12.7h3.235Zm0-6.47H14.322V6.235h3.235Zm6.47,19.409H20.791V25.643h3.235Zm0-6.47H20.791V19.174h3.235Zm0-6.47H20.791V12.7h3.235Zm0-6.47H20.791V6.235h3.235Zm8.087,19.409H28.878V25.643h3.235Zm0-6.47H28.878V19.174h3.235Zm0-6.47H28.878V12.7h3.235Z" transform="translate(-3 -3)" fill="#cac5c1"/>
</svg>
