<svg id="calendar-check" xmlns="http://www.w3.org/2000/svg" width="30.448" height="30.448" viewBox="0 0 30.448 30.448">
  <path id="Path_1770" data-name="Path 1770" d="M22.563,16.027a.952.952,0,0,1,0,1.347l-5.709,5.709a.952.952,0,0,1-1.347,0l-2.855-2.855A.953.953,0,1,1,14,18.882l2.181,2.183,5.036-5.037a.952.952,0,0,1,1.347,0Z" transform="translate(-1.908 -2.429)" fill="#cac5c1" fill-rule="evenodd"/>
  <path id="Path_1771" data-name="Path 1771" d="M1.9,7.959v19.03a1.9,1.9,0,0,0,1.9,1.9H26.642a1.9,1.9,0,0,0,1.9-1.9V7.959Zm1.9-5.709A3.806,3.806,0,0,0,0,6.056V26.989A3.806,3.806,0,0,0,3.806,30.8H26.642a3.806,3.806,0,0,0,3.806-3.806V6.056A3.806,3.806,0,0,0,26.642,2.25Z" transform="translate(0 -0.347)" fill="#cac5c1" fill-rule="evenodd"/>
  <path id="Path_1772" data-name="Path 1772" d="M7.7,0a.952.952,0,0,1,.952.952V1.9a.952.952,0,0,1-1.9,0V.952A.952.952,0,0,1,7.7,0ZM24.829,0a.952.952,0,0,1,.952.952V1.9a.952.952,0,0,1-1.9,0V.952A.952.952,0,0,1,24.829,0Z" transform="translate(-1.041)" fill="#cac5c1" fill-rule="evenodd"/>
</svg>
