<svg xmlns="http://www.w3.org/2000/svg" width="28.947" height="30.448" viewBox="0 0 28.947 30.448">
  <path id="home" d="M30.529,14.127,17.7,2.322a2.2,2.2,0,0,0-3.041.063l-11.8,11.8-.606.606v17.4H13.622V21.335h6.2V32.19H31.2V14.741ZM16.209,3.81c.018,0,.007,0,0,.012C16.2,3.814,16.19,3.81,16.209,3.81Zm12.92,26.312H21.893V21.335a2.068,2.068,0,0,0-2.068-2.068h-6.2a2.068,2.068,0,0,0-2.068,2.068v8.788H4.318V15.648l11.891-11.8,0,0,12.919,11.8Z" transform="translate(-2.25 -1.742)" fill="#cac5c1"/>
</svg>
